<svg width="15" height="15" fill="none" xmlns="http://www.w3.org/2000/svg"><path d="M14.989 3.231c0-.017.012-.033.011-.05l-4.578 4.41 4.572 4.27c.003-.03-.005-.061-.005-.092V3.23zM9.724 8.27l-1.869 1.798a.487.487 0 01-.672.005L5.319 8.337.718 12.772c.111.04.232.072.357.072h12.882c.187 0 .362-.057.514-.142L9.724 8.27z" fill="#000"/><path d="M7.51 9.043l6.987-6.73a1.058 1.058 0 00-.54-.157H1.075c-.257 0-.492.1-.675.252l7.11 6.635zM0 3.396v8.373c0 .096.022.188.046.277L4.591 7.67 0 3.396z" fill="#000"/></svg>