<svg width="25" height="25" fill="none" xmlns="http://www.w3.org/2000/svg"><path d="M17.738 0H7.262C3.258 0 0 3.258 0 7.262v10.476C0 21.742 3.258 25 7.262 25h10.476C21.742 25 25 21.742 25 17.738V7.262C25 3.258 21.742 0 17.738 0zm5.309 17.738a5.315 5.315 0 01-5.31 5.309H7.263a5.315 5.315 0 01-5.309-5.31V7.263a5.315 5.315 0 015.31-5.309h10.475a5.315 5.315 0 015.309 5.31v10.475z" fill="#303030"/><path d="M12.5 5.762A6.746 6.746 0 005.762 12.5a6.746 6.746 0 006.738 6.738 6.746 6.746 0 006.738-6.738A6.746 6.746 0 0012.5 5.762zm0 11.523A4.79 4.79 0 017.715 12.5 4.79 4.79 0 0112.5 7.715a4.79 4.79 0 014.785 4.785 4.79 4.79 0 01-4.785 4.785zM19.336 6.64a.977.977 0 100-1.952.977.977 0 000 1.953z" fill="#303030"/></svg>