<svg width="20" height="20" fill="none" xmlns="http://www.w3.org/2000/svg"><g clip-path="url(#clip0)"><path d="M2.514 2.515A8.53 8.53 0 018.586 0a8.53 8.53 0 016.072 2.515 8.53 8.53 0 012.515 6.072 8.523 8.523 0 01-2.115 5.643l4.77 4.769a.586.586 0 11-.83.83l-4.77-4.77a8.523 8.523 0 01-5.642 2.115 8.53 8.53 0 01-6.072-2.515A8.531 8.531 0 010 8.587a8.53 8.53 0 012.515-6.072zm.83 11.314c2.89 2.89 7.594 2.89 10.484 0 2.89-2.89 2.89-7.594 0-10.484a7.39 7.39 0 00-5.242-2.168 7.392 7.392 0 00-5.242 2.168c-2.891 2.89-2.891 7.594 0 10.484z" fill="#fff"/></g><defs><clipPath id="clip0"><path fill="#fff" transform="matrix(-1 0 0 1 20 0)" d="M0 0h20v20H0z"/></clipPath></defs></svg>