<svg width="18" height="18" viewBox="0 0 18 18" fill="none" xmlns="http://www.w3.org/2000/svg">
<circle cx="9" cy="9" r="8.5" stroke="#BA685D"/>
<g clip-path="url(#clip0)">
<path d="M10.7381 12.4095C10.5971 12.5505 10.3752 12.5505 10.2342 12.4095C10.098 12.2733 10.098 12.0466 10.2342 11.9107L12.7893 9.35561L4.35785 9.35561C4.16131 9.35561 4.00001 9.19939 4.00001 9.00284C4.00001 8.8063 4.16131 8.645 4.35785 8.645L12.7893 8.645L10.2342 6.09467C10.098 5.95369 10.098 5.72666 10.2342 5.59077C10.3752 5.44979 10.5971 5.44979 10.7381 5.59077L13.8981 8.75073C14.0343 8.88695 14.0343 9.11366 13.8981 9.24956L10.7381 12.4095Z" fill="#BA685D"/>
</g>
<defs>
<clipPath id="clip0">
<rect width="10" height="10" fill="white" transform="translate(14 14) rotate(-180)"/>
</clipPath>
</defs>
</svg>
