<svg width="12" height="12" viewBox="0 0 12 12" fill="none" xmlns="http://www.w3.org/2000/svg">
<g clip-path="url(#clip0)">
<path d="M11.8249 1.59166C11.623 1.42947 11.328 1.46165 11.1658 1.66345L4.9287 9.42587C4.84405 9.51641 4.72963 9.56887 4.60534 9.57386C4.47739 9.57901 4.35622 9.53331 4.26495 9.44657L0.793111 6.11866C0.606197 5.93952 0.309501 5.94583 0.130345 6.1327C-0.0487878 6.31959 -0.0425066 6.6163 0.144384 6.79546L3.61761 10.1247C3.88152 10.3756 4.223 10.5118 4.58483 10.5118C4.60417 10.5118 4.62362 10.5114 4.64305 10.5106C5.0263 10.4952 5.37831 10.3293 5.63417 10.0436C5.63973 10.0374 5.64512 10.031 5.65037 10.0245L11.8967 2.25067C12.0588 2.04885 12.0267 1.75382 11.8249 1.59166Z" fill="white"/>
</g>
<defs>
<clipPath id="clip0">
<rect width="12" height="12" fill="white"/>
</clipPath>
</defs>
</svg>
