<svg width="15" height="15" viewBox="0 0 15 15" fill="none" xmlns="http://www.w3.org/2000/svg">
<path d="M14.989 3.23143C14.989 3.21429 15.0007 3.19761 15 3.18066L10.4225 7.59132L14.9945 11.8611C14.9972 11.8306 14.989 11.7998 14.989 11.7687V3.23143Z" fill="black"/>
<path d="M9.72372 8.27002L7.85506 10.0679C7.7605 10.1589 7.63837 10.2045 7.51618 10.2045C7.39653 10.2045 7.27688 10.1608 7.18297 10.0733L5.31939 8.33675L0.717529 12.7724C0.829425 12.8126 0.949532 12.8439 1.07531 12.8439H13.9571C14.1439 12.8439 14.3191 12.787 14.4714 12.7021L9.72372 8.27002Z" fill="black"/>
<path d="M7.51087 9.04282L14.4967 2.31337C14.3386 2.21933 14.1545 2.15625 13.9571 2.15625H1.07534C0.818379 2.15625 0.582922 2.25602 0.399536 2.40819L7.51087 9.04282Z" fill="black"/>
<path d="M0 3.39551V11.7687C0 11.8648 0.0220924 11.9575 0.0460746 12.0461L4.59085 7.66957L0 3.39551Z" fill="black"/>
</svg>
