<svg width="16" height="16" viewBox="0 0 16 16" fill="none" xmlns="http://www.w3.org/2000/svg">
<path d="M8 0C4.691 0 2 2.691 2 6C2 10.159 7.416 15.623 7.646 15.854C7.744 15.951 7.872 16 8 16C8.128 16 8.256 15.951 8.354 15.854C8.584 15.623 14 10.159 14 6C14 2.691 11.309 0 8 0ZM8 14.777C6.806 13.499 3 9.177 3 6C3 3.243 5.243 1 8 1C10.757 1 13 3.243 13 6C13 9.174 9.194 13.499 8 14.777Z" fill="#303030"/>
<path d="M8 3C6.346 3 5 4.346 5 6C5 7.654 6.346 9 8 9C9.654 9 11 7.654 11 6C11 4.346 9.654 3 8 3ZM8 8C6.897 8 6 7.103 6 6C6 4.897 6.897 4 8 4C9.103 4 10 4.897 10 6C10 7.103 9.103 8 8 8Z" fill="#303030"/>
</svg>
