<svg width="25" height="25" viewBox="0 0 25 25" fill="none" xmlns="http://www.w3.org/2000/svg">
<path d="M17.7379 0H7.26211C3.25776 0 0 3.25776 0 7.26211V17.7379C0 21.7422 3.25776 25 7.26211 25H17.7379C21.7422 25 25 21.7422 25 17.7379V7.26211C25 3.25776 21.7422 0 17.7379 0ZM23.0469 17.7379C23.0469 20.6653 20.6653 23.0469 17.7379 23.0469H7.26211C4.33472 23.0469 1.95312 20.6653 1.95312 17.7379V7.26211C1.95312 4.33472 4.33472 1.95312 7.26211 1.95312H17.7379C20.6653 1.95312 23.0469 4.33472 23.0469 7.26211V17.7379Z" fill="#303030"/>
<path d="M12.5 5.76172C8.78447 5.76172 5.76172 8.78447 5.76172 12.5C5.76172 16.2155 8.78447 19.2383 12.5 19.2383C16.2155 19.2383 19.2383 16.2155 19.2383 12.5C19.2383 8.78447 16.2155 5.76172 12.5 5.76172ZM12.5 17.2852C9.86147 17.2852 7.71484 15.1385 7.71484 12.5C7.71484 9.86147 9.86147 7.71484 12.5 7.71484C15.1385 7.71484 17.2852 9.86147 17.2852 12.5C17.2852 15.1385 15.1385 17.2852 12.5 17.2852Z" fill="#303030"/>
<path d="M19.3359 6.64062C19.8753 6.64062 20.3125 6.2034 20.3125 5.66406C20.3125 5.12472 19.8753 4.6875 19.3359 4.6875C18.7966 4.6875 18.3594 5.12472 18.3594 5.66406C18.3594 6.2034 18.7966 6.64062 19.3359 6.64062Z" fill="#303030"/>
</svg>
