<svg width="20" height="20" viewBox="0 0 20 20" fill="none" xmlns="http://www.w3.org/2000/svg">
<g clip-path="url(#clip0)">
<path d="M2.51408 2.51508C4.13596 0.893203 6.29232 0 8.58596 0C10.8796 0 13.036 0.893203 14.6578 2.51508C16.2796 4.13691 17.1729 6.29328 17.1729 8.58687C17.1729 10.6839 16.4258 12.6658 15.0583 14.2298L19.8272 18.9987C20.0563 19.2277 20.0563 19.5991 19.8272 19.8282C19.7127 19.9427 19.5626 20 19.4125 20C19.2624 20 19.1122 19.9427 18.9978 19.8282L14.2288 15.0593C12.6649 16.4268 10.6829 17.1738 8.58596 17.1738C6.29228 17.1738 4.13599 16.2806 2.51412 14.6588C0.892282 13.0369 -0.000919342 10.8805 -0.000919342 8.58691C-0.000919342 6.29328 0.892244 4.13691 2.51408 2.51508ZM3.34361 13.8293C6.23428 16.7199 10.9376 16.7199 13.8283 13.8293C16.7189 10.9386 16.7189 6.23523 13.8283 3.34461C12.3828 1.89914 10.4847 1.17664 8.58592 1.17664C6.68764 1.17664 4.78873 1.89949 3.34357 3.34461C0.453026 6.2352 0.453026 10.9386 3.34361 13.8293Z" fill="white"/>
</g>
<defs>
<clipPath id="clip0">
<rect width="20" height="20" fill="white" transform="matrix(-1 0 0 1 20 0)"/>
</clipPath>
</defs>
</svg>
