<svg width="14" height="14" viewBox="0 0 14 14" fill="none" xmlns="http://www.w3.org/2000/svg">
<path d="M12.8947 9.2179C12.0311 9.2179 11.1853 9.08306 10.3836 8.81852C9.99231 8.68368 9.548 8.78757 9.29085 9.0499L7.70148 10.2502C5.87779 9.27686 4.71064 8.11043 3.75054 6.3L4.91843 4.74821C5.21243 4.45421 5.31781 4.02389 5.19181 3.62085C4.92506 2.814 4.78949 1.96737 4.78949 1.10526C4.78949 0.495884 4.29361 0 3.68423 0H1.10526C0.495884 0 0 0.495884 0 1.10526C0 8.21505 5.78495 14 12.8947 14C13.5041 14 14 13.5041 14 12.8947V10.3232C14 9.71379 13.5041 9.2179 12.8947 9.2179Z" fill="#303030"/>
</svg>
