<svg width="25" height="25" viewBox="0 0 25 25" fill="none" xmlns="http://www.w3.org/2000/svg">
<path d="M23.9375 5.5625C23.2594 4.35625 22.5234 4.13438 21.025 4.05C19.5281 3.94844 15.7641 3.90625 12.5031 3.90625C9.23594 3.90625 5.47031 3.94844 3.975 4.04844C2.47969 4.13438 1.74219 4.35469 1.05781 5.5625C0.359375 6.76719 0 8.84219 0 12.4953C0 12.4984 0 12.5 0 12.5C0 12.5031 0 12.5047 0 12.5047V12.5078C0 16.1453 0.359375 18.2359 1.05781 19.4281C1.74219 20.6344 2.47812 20.8531 3.97344 20.9547C5.47031 21.0422 9.23594 21.0938 12.5031 21.0938C15.7641 21.0938 19.5281 21.0422 21.0266 20.9562C22.525 20.8547 23.2609 20.6359 23.9391 19.4297C24.6437 18.2375 25 16.1469 25 12.5094C25 12.5094 25 12.5047 25 12.5016C25 12.5016 25 12.4984 25 12.4969C25 8.84219 24.6437 6.76719 23.9375 5.5625ZM9.375 17.1875V7.8125L17.1875 12.5L9.375 17.1875Z" fill="#303030"/>
</svg>
